# xmcd
#
# Track frame offsets:
#  150
#  26227
#  50033
#  74522
#  107425
#  133544
#  158855
#  184068
#
# Disc length: 2804 seconds
#
# Revision: 0
# Processed by: cddbd v1.4PL0 Copyright (c) Steve Scherf et al.
# Submitted via: AltoMP3_Maker 3.0
#
DISCID=6f0af208
DTITLE=王森地 - 清心白水晶
DYEAR=1900
DGENRE=
TTITLE0=清心
TTITLE1=白雪
TTITLE2=寂靜外
TTITLE3=冰舞
TTITLE4=發現白水晶
TTITLE5=音符
TTITLE6=邀樂
TTITLE7=無聲之歌
EXTD=
EXTT0=
EXTT1=
EXTT2=
EXTT3=
EXTT4=
EXTT5=
EXTT6=
EXTT7=
PLAYORDER=
